<!-- icon666.com - MILLIONS vector ICONS FREE --><svg id="Layer" viewBox="0 0 24 24" xmlns="http://www.w3.org/2000/svg"><path id="trash-check" d="m20.75 6a.75.75 0 0 1 -.75.75h-16a.75.75 0 0 1 0-1.5h4.214a4.529 4.529 0 0 0 .242-.618l.2-.607a1.5 1.5 0 0 1 1.425-1.025h3.838a1.5 1.5 0 0 1 1.423 1.025l.2.607a4.529 4.529 0 0 0 .242.618h4.216a.75.75 0 0 1 .75.75zm-1.891 2.07-.669 10.13a2.718 2.718 0 0 1 -3 2.8h-6.38a2.718 2.718 0 0 1 -3-2.8l-.669-10.13a.3.3 0 0 1 .3-.32h13.119a.3.3 0 0 1 .299.32zm-3.829 3.73a.749.749 0 0 0 -1.06 0l-2.8 2.8-1.14-1.13a.75.75 0 0 0 -1.06 1.06l1.666 1.67a.75.75 0 0 0 1.061 0l3.333-3.333a.75.75 0 0 0 0-1.067z" fill="rgb(0,0,0)"></path></svg>