<svg xmlns="http://www.w3.org/2000/svg"  viewBox="0 0 50 50" width="50px" height="50px"><path d="M 25 3 C 12.861562 3 3 12.861562 3 25 C 3 29.667922 4.4578219 34.005866 6.9414062 37.568359 A 1.0001 1.0001 0 1 0 8.5820312 36.425781 C 6.3236158 33.186274 5 29.252078 5 25 C 5 13.942438 13.942438 5 25 5 C 31.367776 5 37.027701 7.9689661 40.691406 12.597656 A 1.0003476 1.0003476 0 1 0 42.259766 11.355469 C 38.231471 6.2661588 31.990224 3 25 3 z M 25 9 C 16.17552 9 9 16.17552 9 25 C 9 26.472207 9.1987787 27.899568 9.5722656 29.255859 A 1.0007397 1.0007397 0 1 0 11.501953 28.724609 C 11.17544 27.538901 11 26.291793 11 25 C 11 17.25648 17.25648 11 25 11 A 1.0001 1.0001 0 1 0 25 9 z M 32.566406 11.021484 A 1.0001 1.0001 0 0 0 32.466797 11.023438 A 1.0001 1.0001 0 0 0 32.035156 12.892578 C 36.200342 15.318148 39 19.825151 39 25 C 39 32.74352 32.74352 39 25 39 C 20.052236 39 15.716848 36.441476 13.224609 32.576172 A 1.0001 1.0001 0 1 0 11.544922 33.660156 C 14.392683 38.076852 19.361764 41 25 41 C 33.82448 41 41 33.82448 41 25 C 41 19.102849 37.80183 13.936494 33.041016 11.164062 A 1.0001 1.0001 0 0 0 32.566406 11.021484 z M 25 15 C 22.097304 15 19.472173 16.243449 17.646484 18.224609 A 1.0001 1.0001 0 1 0 19.117188 19.580078 C 20.579498 17.993239 22.666696 17 25 17 C 29.430666 17 33 20.569334 33 25 C 33 26.326923 32.678186 27.570517 32.109375 28.669922 C 31.974046 28.931735 31.822414 29.187277 31.658203 29.433594 A 1.0001 1.0001 0 1 0 33.322266 30.542969 C 33.526054 30.237286 33.716048 29.920031 33.886719 29.589844 C 34.597908 28.215248 35 26.651077 35 25 C 35 19.488666 30.511334 15 25 15 z M 44.970703 17.566406 A 1.0001 1.0001 0 0 0 44.046875 18.884766 C 44.664809 20.811883 45 22.864464 45 25 C 45 34.044921 39.006544 41.673346 30.783203 44.152344 A 1.0001 1.0001 0 1 0 31.359375 46.066406 C 40.412034 43.337404 47 34.929079 47 25 C 47 22.655536 46.633191 20.39432 45.953125 18.273438 A 1.0001 1.0001 0 0 0 44.970703 17.566406 z M 22 21 A 1.0001 1.0001 0 0 0 21 22 L 21 24 C 21 26.749516 23.250484 29 26 29 L 27 29 L 27 32.658203 C 26.352713 32.827604 25.703644 33 25 33 C 20.569334 33 17 29.430666 17 25 C 17 24.396855 17.06597 23.812056 17.191406 23.248047 A 1.0001 1.0001 0 1 0 15.240234 22.8125 C 15.083669 23.516491 15 24.249145 15 25 C 15 30.511334 19.488666 35 25 35 C 26.166068 35 27.290308 34.801044 28.333984 34.431641 A 1.0001 1.0001 0 0 0 29 33.488281 L 29 28.167969 A 1.0001 1.0001 0 0 0 29 27.841797 L 29 25 C 29 22.802666 27.197334 21 25 21 L 22 21 z M 23 23 L 25 23 C 26.116666 23 27 23.883334 27 25 L 27 27 L 26 27 C 24.331516 27 23 25.668484 23 24 L 23 23 z M 13.013672 41.228516 A 1.0001 1.0001 0 0 0 12.429688 43.056641 C 15.992244 45.541318 20.331124 47 25 47 A 1.0001 1.0001 0 1 0 25 45 C 20.746876 45 16.813661 43.675339 13.574219 41.416016 A 1.0001 1.0001 0 0 0 13.013672 41.228516 z"/></svg>