<?xml version="1.0" ?><svg style="enable-background:new 0 0 100 100;" version="1.1" viewBox="0 0 100 100" xml:space="preserve" xmlns="http://www.w3.org/2000/svg" xmlns:xlink="http://www.w3.org/1999/xlink"><style type="text/css">
	.st0{fill:#FFFFFF;}
	.st1{fill:none;stroke:#000000;stroke-width:3;stroke-linecap:round;stroke-linejoin:round;stroke-miterlimit:10;}
	
		.st2{fill-rule:evenodd;clip-rule:evenodd;fill:none;stroke:#000000;stroke-width:3;stroke-linecap:round;stroke-linejoin:round;stroke-miterlimit:10;}
	.st3{fill-rule:evenodd;clip-rule:evenodd;}
	
		.st4{fill-rule:evenodd;clip-rule:evenodd;fill:none;stroke:#040404;stroke-width:3;stroke-linecap:round;stroke-linejoin:round;stroke-miterlimit:10;}
	.st5{fill-rule:evenodd;clip-rule:evenodd;fill:#040404;}
	.st6{fill:none;}
	.st7{fill:none;stroke:#000000;stroke-width:3;stroke-miterlimit:10;}
	.st8{fill:none;stroke:#FFFFFF;stroke-miterlimit:10;}
	.st9{fill:#040404;}
</style><g id="Layer_1"/><g id="Layer_2"><path d="M89.442,11.418c-12.533,5.19-66.27,27.449-81.118,33.516c-9.958,3.886-4.129,7.529-4.129,7.529s8.5,2.914,15.786,5.1   c7.286,2.186,11.172-0.243,11.172-0.243l34.244-23.073c12.143-8.257,9.229-1.457,6.315,1.457   c-6.315,6.315-16.758,16.272-25.501,24.287c-3.886,3.4-1.943,6.315-0.243,7.772c6.315,5.343,23.558,16.272,24.53,17.001   c5.131,3.632,15.223,8.861,16.758-2.186c0,0,6.072-38.13,6.072-38.13c1.943-12.872,3.886-24.773,4.129-28.173   C98.185,8.018,89.442,11.418,89.442,11.418z"/></g></svg>